<svg width="693" height="514" viewBox="0 0 693 514" fill="none" xmlns="http://www.w3.org/2000/svg">
<rect width="12" height="514" rx="6" fill="#4ECCA3"/>
<rect x="681" width="12" height="514" rx="6" fill="#4ECCA3"/>
<rect x="574" width="12" height="306" rx="6" fill="#4ECCA3"/>
<rect x="123" width="12" height="287" rx="6" fill="#4ECCA3"/>
<rect x="586" width="12" height="107" transform="rotate(90 586 0)" fill="#4ECCA3"/>
<rect x="586" y="99" width="12" height="107" rx="6" transform="rotate(90 586 99)" fill="#4ECCA3"/>
<rect x="586" y="200" width="12" height="107" rx="6" transform="rotate(90 586 200)" fill="#4ECCA3"/>
<rect x="586" y="321" width="12" height="107" rx="6" transform="rotate(90 586 321)" fill="#4ECCA3"/>
<rect x="693" y="321" width="12" height="82" rx="6" transform="rotate(90 693 321)" fill="#4ECCA3"/>
<rect x="574" y="294" width="12" height="39" rx="6" fill="#4ECCA3"/>
<rect x="107" y="321" width="12" height="107" transform="rotate(90 107 321)" fill="#4ECCA3"/>
<rect x="153" y="321" width="12" height="112" rx="6" fill="#4ECCA3"/>
<rect x="12" y="430" width="12" height="97" transform="rotate(-180 12 430)" fill="#4ECCA3"/>
<rect x="1" y="433" width="12" height="164" rx="6" transform="rotate(-90 1 433)" fill="#4ECCA3"/>
<rect x="6" y="12" width="12" height="681" transform="rotate(-90 6 12)" fill="#4ECCA3"/>
<rect x="123" y="287" width="12" height="289" rx="5.99999" transform="rotate(-90 123 287)" fill="#4ECCA3"/>
<rect y="333" width="12" height="398" rx="5.99999" transform="rotate(-90 0 333)" fill="#4ECCA3"/>
<rect x="97" y="514" width="12" height="596" rx="5.99999" transform="rotate(-90 97 514)" fill="#4ECCA3"/>
<rect x="129" y="150" width="12" height="283" rx="5.99999" transform="rotate(-90 129 150)" fill="#4ECCA3"/>
<path d="M72.6389 356.197C73.5162 354.028 73.8551 352.467 76 351.5C78.3112 350.457 79.4611 353.031 82 353C84.3483 352.971 86.3823 350.493 88.5 351.5C90.5301 352.465 90.6657 354.095 91.4229 356.197C92.7214 359.802 91.4229 366 91.4229 366H72.6389C72.6389 366 71.2014 359.75 72.6389 356.197Z" fill="#4ECCA3"/>
<rect x="77" y="342" width="10" height="10" rx="5" fill="#4ECCA3"/>
<path d="M68.9155 372H67.8587C67.7962 371.696 67.6868 371.429 67.5305 371.199C67.3771 370.969 67.1896 370.776 66.968 370.619C66.7493 370.46 66.5064 370.341 66.2393 370.261C65.9723 370.182 65.6939 370.142 65.4041 370.142C64.8757 370.142 64.397 370.276 63.968 370.543C63.5419 370.81 63.2024 371.203 62.9496 371.723C62.6996 372.243 62.5746 372.881 62.5746 373.636C62.5746 374.392 62.6996 375.03 62.9496 375.55C63.2024 376.07 63.5419 376.463 63.968 376.73C64.397 376.997 64.8757 377.131 65.4041 377.131C65.6939 377.131 65.9723 377.091 66.2393 377.011C66.5064 376.932 66.7493 376.814 66.968 376.658C67.1896 376.499 67.3771 376.304 67.5305 376.074C67.6868 375.841 67.7962 375.574 67.8587 375.273H68.9155C68.8359 375.719 68.6911 376.118 68.4808 376.47C68.2706 376.822 68.0092 377.122 67.6967 377.369C67.3842 377.614 67.0334 377.8 66.6442 377.928C66.2578 378.055 65.8445 378.119 65.4041 378.119C64.6598 378.119 63.9979 377.938 63.4183 377.574C62.8388 377.21 62.3828 376.693 62.0504 376.023C61.718 375.352 61.5518 374.557 61.5518 373.636C61.5518 372.716 61.718 371.92 62.0504 371.25C62.3828 370.58 62.8388 370.062 63.4183 369.699C63.9979 369.335 64.6598 369.153 65.4041 369.153C65.8445 369.153 66.2578 369.217 66.6442 369.345C67.0334 369.473 67.3842 369.661 67.6967 369.908C68.0092 370.152 68.2706 370.45 68.4808 370.803C68.6911 371.152 68.8359 371.551 68.9155 372ZM70.1119 372.392V371.455H75.43V372.392H73.2823V378H72.2766V372.392H70.1119ZM79.2163 378.136C78.6254 378.136 78.1069 377.996 77.6609 377.714C77.2177 377.433 76.8711 377.04 76.6211 376.534C76.3739 376.028 76.2504 375.437 76.2504 374.761C76.2504 374.08 76.3739 373.484 76.6211 372.976C76.8711 372.467 77.2177 372.072 77.6609 371.791C78.1069 371.51 78.6254 371.369 79.2163 371.369C79.8072 371.369 80.3242 371.51 80.7674 371.791C81.2134 372.072 81.56 372.467 81.8072 372.976C82.0572 373.484 82.1822 374.08 82.1822 374.761C82.1822 375.437 82.0572 376.028 81.8072 376.534C81.56 377.04 81.2134 377.433 80.7674 377.714C80.3242 377.996 79.8072 378.136 79.2163 378.136ZM79.2163 377.233C79.6651 377.233 80.0344 377.118 80.3242 376.888C80.614 376.658 80.8285 376.355 80.9677 375.98C81.1069 375.605 81.1765 375.199 81.1765 374.761C81.1765 374.324 81.1069 373.916 80.9677 373.538C80.8285 373.161 80.614 372.855 80.3242 372.622C80.0344 372.389 79.6651 372.273 79.2163 372.273C78.7674 372.273 78.3981 372.389 78.1083 372.622C77.8185 372.855 77.604 373.161 77.4648 373.538C77.3256 373.916 77.256 374.324 77.256 374.761C77.256 375.199 77.3256 375.605 77.4648 375.98C77.604 376.355 77.8185 376.658 78.1083 376.888C78.3981 377.118 78.7674 377.233 79.2163 377.233ZM84.723 376.517L87.8764 371.455H89.0355V378H88.0298V372.938L84.8935 378H83.7173V371.455H84.723V376.517ZM87.2116 369.273H88.1491C88.1491 369.733 87.9901 370.109 87.6719 370.402C87.3537 370.695 86.9219 370.841 86.3764 370.841C85.8395 370.841 85.4119 370.695 85.0938 370.402C84.7784 370.109 84.6207 369.733 84.6207 369.273H85.5582C85.5582 369.494 85.6193 369.689 85.7415 369.857C85.8665 370.024 86.0781 370.108 86.3764 370.108C86.6747 370.108 86.8878 370.024 87.0156 369.857C87.1463 369.689 87.2116 369.494 87.2116 369.273ZM90.8775 378V371.455H91.8832V374.301H92.5479L94.9002 371.455H96.1957L93.5536 374.608L96.2298 378H94.9343L92.7866 375.239H91.8832V378H90.8775ZM99.2489 378.153C98.8342 378.153 98.4577 378.075 98.1197 377.919C97.7816 377.76 97.5131 377.531 97.3143 377.233C97.1154 376.932 97.016 376.568 97.016 376.142C97.016 375.767 97.0898 375.463 97.2376 375.23C97.3853 374.994 97.5827 374.81 97.8299 374.676C98.0771 374.543 98.3498 374.443 98.6481 374.378C98.9492 374.31 99.2518 374.256 99.5558 374.216C99.9535 374.165 100.276 374.126 100.523 374.101C100.773 374.072 100.955 374.026 101.069 373.96C101.185 373.895 101.243 373.781 101.243 373.619V373.585C101.243 373.165 101.128 372.838 100.898 372.605C100.671 372.372 100.326 372.256 99.8626 372.256C99.3825 372.256 99.006 372.361 98.7333 372.571C98.4606 372.781 98.2688 373.006 98.158 373.244L97.2035 372.903C97.3739 372.506 97.6012 372.196 97.8853 371.974C98.1722 371.75 98.4847 371.594 98.8228 371.506C99.1637 371.415 99.4989 371.369 99.8285 371.369C100.039 371.369 100.28 371.395 100.553 371.446C100.828 371.494 101.094 371.595 101.35 371.749C101.608 371.902 101.823 372.134 101.993 372.443C102.164 372.753 102.249 373.168 102.249 373.688V378H101.243V377.114H101.192C101.124 377.256 101.01 377.408 100.851 377.57C100.692 377.732 100.48 377.869 100.216 377.983C99.9521 378.097 99.6296 378.153 99.2489 378.153ZM99.4023 377.25C99.8001 377.25 100.135 377.172 100.408 377.016C100.684 376.859 100.891 376.658 101.03 376.411C101.172 376.163 101.243 375.903 101.243 375.631V374.71C101.201 374.761 101.107 374.808 100.962 374.851C100.82 374.891 100.655 374.926 100.468 374.957C100.283 374.986 100.103 375.011 99.9265 375.034C99.7532 375.054 99.6126 375.071 99.5046 375.085C99.2433 375.119 98.9989 375.175 98.7717 375.251C98.5472 375.325 98.3654 375.437 98.2262 375.588C98.0898 375.736 98.0217 375.937 98.0217 376.193C98.0217 376.543 98.1509 376.807 98.4094 376.986C98.6708 377.162 99.0018 377.25 99.4023 377.25ZM33.5456 393H32.4377L35.6422 384.273H36.7331L39.9377 393H38.8297L36.2218 385.653H36.1536L33.5456 393ZM33.9547 389.591H38.4206V390.528H33.9547V389.591ZM40.4618 394.875V392.062H41.0073C41.1408 391.923 41.2559 391.773 41.3525 391.611C41.449 391.449 41.5328 391.257 41.6039 391.036C41.6777 390.811 41.7402 390.538 41.7914 390.217C41.8425 389.893 41.888 389.503 41.9277 389.045L42.1493 386.455H46.3084V392.062H47.3141V394.875H46.3084V393H41.4675V394.875H40.4618ZM42.1493 392.062H45.3027V387.392H43.0868L42.9164 389.045C42.8453 389.73 42.7573 390.328 42.6522 390.839C42.5471 391.351 42.3794 391.759 42.1493 392.062ZM52.2285 391.636L54.5126 386.455H55.4672L52.6376 393H51.8194L49.041 386.455H49.9785L52.2285 391.636ZM49.6547 386.455V393H48.649V386.455H49.6547ZM54.8024 393V386.455H55.8081V393H54.8024ZM58.6547 391.517L61.8081 386.455H62.9672V393H61.9615V387.938L58.8251 393H57.649V386.455H58.6547V391.517ZM69.1898 389.267V390.205H65.5762V389.267H69.1898ZM65.8148 386.455V393H64.8091V386.455H65.8148ZM69.9569 386.455V393H68.9512V386.455H69.9569ZM72.7992 391.517L75.9526 386.455H77.1117V393H76.106V387.938L72.9696 393H71.7935V386.455H72.7992V391.517ZM81.6127 393.136C80.9991 393.136 80.4707 392.991 80.0275 392.702C79.5843 392.412 79.2434 392.013 79.0048 391.504C78.7662 390.996 78.6468 390.415 78.6468 389.761C78.6468 389.097 78.769 388.51 79.0133 388.001C79.2605 387.49 79.6042 387.091 80.0446 386.804C80.4877 386.514 81.0048 386.369 81.5957 386.369C82.0559 386.369 82.4707 386.455 82.84 386.625C83.2093 386.795 83.5119 387.034 83.7477 387.341C83.9835 387.648 84.1298 388.006 84.1866 388.415H83.1809C83.1042 388.116 82.9338 387.852 82.6696 387.622C82.4082 387.389 82.0559 387.273 81.6127 387.273C81.2207 387.273 80.877 387.375 80.5815 387.58C80.2889 387.781 80.0602 388.067 79.8954 388.436C79.7335 388.803 79.6525 389.233 79.6525 389.727C79.6525 390.233 79.7321 390.673 79.8912 391.048C80.0531 391.423 80.2804 391.714 80.573 391.922C80.8684 392.129 81.215 392.233 81.6127 392.233C81.8741 392.233 82.1113 392.188 82.3244 392.097C82.5375 392.006 82.7179 391.875 82.8656 391.705C83.0133 391.534 83.1184 391.33 83.1809 391.091H84.1866C84.1298 391.477 83.9892 391.825 83.7647 392.135C83.5431 392.442 83.2491 392.686 82.8826 392.868C82.519 393.047 82.0957 393.136 81.6127 393.136ZM85.1412 387.392V386.455H90.4593V387.392H88.3116V393H87.3059V387.392H85.1412ZM91.9263 395.455V386.455H92.8979V387.494H93.0172C93.0911 387.381 93.1934 387.236 93.324 387.06C93.4576 386.881 93.6479 386.722 93.8951 386.582C94.1451 386.44 94.4831 386.369 94.9093 386.369C95.4604 386.369 95.9462 386.507 96.3667 386.783C96.7871 387.058 97.1152 387.449 97.351 387.955C97.5868 388.46 97.7047 389.057 97.7047 389.744C97.7047 390.438 97.5868 391.038 97.351 391.547C97.1152 392.053 96.7885 392.445 96.3709 392.723C95.9533 392.999 95.4718 393.136 94.9263 393.136C94.5059 393.136 94.1692 393.067 93.9164 392.928C93.6635 392.786 93.4689 392.625 93.3326 392.446C93.1962 392.264 93.0911 392.114 93.0172 391.994H92.932V395.455H91.9263ZM92.915 389.727C92.915 390.222 92.9874 390.658 93.1323 391.036C93.2772 391.411 93.4888 391.705 93.7672 391.918C94.0456 392.128 94.3865 392.233 94.79 392.233C95.2104 392.233 95.5613 392.122 95.8425 391.901C96.1266 391.676 96.3397 391.375 96.4817 390.997C96.6266 390.616 96.699 390.193 96.699 389.727C96.699 389.267 96.628 388.852 96.486 388.483C96.3468 388.111 96.1351 387.817 95.851 387.601C95.5698 387.382 95.2161 387.273 94.79 387.273C94.3809 387.273 94.0371 387.376 93.7587 387.584C93.4803 387.788 93.2701 388.075 93.128 388.445C92.986 388.811 92.915 389.239 92.915 389.727ZM101.165 393.153C100.75 393.153 100.374 393.075 100.036 392.919C99.6976 392.76 99.4292 392.531 99.2303 392.233C99.0314 391.932 98.932 391.568 98.932 391.142C98.932 390.767 99.0059 390.463 99.1536 390.23C99.3013 389.994 99.4988 389.81 99.7459 389.676C99.9931 389.543 100.266 389.443 100.564 389.378C100.865 389.31 101.168 389.256 101.472 389.216C101.869 389.165 102.192 389.126 102.439 389.101C102.689 389.072 102.871 389.026 102.985 388.96C103.101 388.895 103.159 388.781 103.159 388.619V388.585C103.159 388.165 103.044 387.838 102.814 387.605C102.587 387.372 102.242 387.256 101.779 387.256C101.298 387.256 100.922 387.361 100.649 387.571C100.377 387.781 100.185 388.006 100.074 388.244L99.1195 387.903C99.29 387.506 99.5172 387.196 99.8013 386.974C100.088 386.75 100.401 386.594 100.739 386.506C101.08 386.415 101.415 386.369 101.744 386.369C101.955 386.369 102.196 386.395 102.469 386.446C102.744 386.494 103.01 386.595 103.266 386.749C103.524 386.902 103.739 387.134 103.909 387.443C104.08 387.753 104.165 388.168 104.165 388.688V393H103.159V392.114H103.108C103.04 392.256 102.926 392.408 102.767 392.57C102.608 392.732 102.396 392.869 102.132 392.983C101.868 393.097 101.546 393.153 101.165 393.153ZM101.318 392.25C101.716 392.25 102.051 392.172 102.324 392.016C102.6 391.859 102.807 391.658 102.946 391.411C103.088 391.163 103.159 390.903 103.159 390.631V389.71C103.117 389.761 103.023 389.808 102.878 389.851C102.736 389.891 102.571 389.926 102.384 389.957C102.199 389.986 102.019 390.011 101.843 390.034C101.669 390.054 101.529 390.071 101.421 390.085C101.159 390.119 100.915 390.175 100.688 390.251C100.463 390.325 100.281 390.437 100.142 390.588C100.006 390.736 99.9377 390.937 99.9377 391.193C99.9377 391.543 100.067 391.807 100.325 391.986C100.587 392.162 100.918 392.25 101.318 392.25ZM105.11 387.392V386.455H110.428V387.392H108.28V393H107.275V387.392H105.11ZM114.214 393.136C113.623 393.136 113.105 392.996 112.659 392.714C112.216 392.433 111.869 392.04 111.619 391.534C111.372 391.028 111.248 390.437 111.248 389.761C111.248 389.08 111.372 388.484 111.619 387.976C111.869 387.467 112.216 387.072 112.659 386.791C113.105 386.51 113.623 386.369 114.214 386.369C114.805 386.369 115.322 386.51 115.765 386.791C116.211 387.072 116.558 387.467 116.805 387.976C117.055 388.484 117.18 389.08 117.18 389.761C117.18 390.437 117.055 391.028 116.805 391.534C116.558 392.04 116.211 392.433 115.765 392.714C115.322 392.996 114.805 393.136 114.214 393.136ZM114.214 392.233C114.663 392.233 115.032 392.118 115.322 391.888C115.612 391.658 115.827 391.355 115.966 390.98C116.105 390.605 116.175 390.199 116.175 389.761C116.175 389.324 116.105 388.916 115.966 388.538C115.827 388.161 115.612 387.855 115.322 387.622C115.032 387.389 114.663 387.273 114.214 387.273C113.765 387.273 113.396 387.389 113.106 387.622C112.817 387.855 112.602 388.161 112.463 388.538C112.324 388.916 112.254 389.324 112.254 389.761C112.254 390.199 112.324 390.605 112.463 390.98C112.602 391.355 112.817 391.658 113.106 391.888C113.396 392.118 113.765 392.233 114.214 392.233ZM118.715 395.455V386.455H119.687V387.494H119.806C119.88 387.381 119.982 387.236 120.113 387.06C120.247 386.881 120.437 386.722 120.684 386.582C120.934 386.44 121.272 386.369 121.698 386.369C122.249 386.369 122.735 386.507 123.156 386.783C123.576 387.058 123.904 387.449 124.14 387.955C124.376 388.46 124.494 389.057 124.494 389.744C124.494 390.438 124.376 391.038 124.14 391.547C123.904 392.053 123.578 392.445 123.16 392.723C122.742 392.999 122.261 393.136 121.715 393.136C121.295 393.136 120.958 393.067 120.705 392.928C120.453 392.786 120.258 392.625 120.122 392.446C119.985 392.264 119.88 392.114 119.806 391.994H119.721V395.455H118.715ZM119.704 389.727C119.704 390.222 119.776 390.658 119.921 391.036C120.066 391.411 120.278 391.705 120.556 391.918C120.835 392.128 121.176 392.233 121.579 392.233C121.999 392.233 122.35 392.122 122.632 391.901C122.916 391.676 123.129 391.375 123.271 390.997C123.416 390.616 123.488 390.193 123.488 389.727C123.488 389.267 123.417 388.852 123.275 388.483C123.136 388.111 122.924 387.817 122.64 387.601C122.359 387.382 122.005 387.273 121.579 387.273C121.17 387.273 120.826 387.376 120.548 387.584C120.269 387.788 120.059 388.075 119.917 388.445C119.775 388.811 119.704 389.239 119.704 389.727ZM127.954 393.153C127.539 393.153 127.163 393.075 126.825 392.919C126.487 392.76 126.218 392.531 126.019 392.233C125.82 391.932 125.721 391.568 125.721 391.142C125.721 390.767 125.795 390.463 125.943 390.23C126.09 389.994 126.288 389.81 126.535 389.676C126.782 389.543 127.055 389.443 127.353 389.378C127.654 389.31 127.957 389.256 128.261 389.216C128.659 389.165 128.981 389.126 129.228 389.101C129.478 389.072 129.66 389.026 129.774 388.96C129.89 388.895 129.948 388.781 129.948 388.619V388.585C129.948 388.165 129.833 387.838 129.603 387.605C129.376 387.372 129.031 387.256 128.568 387.256C128.088 387.256 127.711 387.361 127.438 387.571C127.166 387.781 126.974 388.006 126.863 388.244L125.909 387.903C126.079 387.506 126.306 387.196 126.59 386.974C126.877 386.75 127.19 386.594 127.528 386.506C127.869 386.415 128.204 386.369 128.534 386.369C128.744 386.369 128.985 386.395 129.258 386.446C129.534 386.494 129.799 386.595 130.055 386.749C130.313 386.902 130.528 387.134 130.698 387.443C130.869 387.753 130.954 388.168 130.954 388.688V393H129.948V392.114H129.897C129.829 392.256 129.715 392.408 129.556 392.57C129.397 392.732 129.186 392.869 128.921 392.983C128.657 393.097 128.335 393.153 127.954 393.153ZM128.107 392.25C128.505 392.25 128.84 392.172 129.113 392.016C129.389 391.859 129.596 391.658 129.735 391.411C129.877 391.163 129.948 390.903 129.948 390.631V389.71C129.906 389.761 129.812 389.808 129.667 389.851C129.525 389.891 129.36 389.926 129.173 389.957C128.988 389.986 128.808 390.011 128.632 390.034C128.458 390.054 128.318 390.071 128.21 390.085C127.948 390.119 127.704 390.175 127.477 390.251C127.252 390.325 127.07 390.437 126.931 390.588C126.795 390.736 126.727 390.937 126.727 391.193C126.727 391.543 126.856 391.807 127.115 391.986C127.376 392.162 127.707 392.25 128.107 392.25Z" fill="#4ECCA3"/>
<path d="M34.8352 406.602V400.705H36.1733V406.602H34.8352ZM32.5554 404.322V402.984H38.4531V404.322H32.5554ZM40.31 408L44.0217 400.653V400.594H39.7134V399.273H45.658V400.624L41.9506 408H40.31ZM53.0398 399.153C53.4574 399.156 53.8636 399.23 54.2585 399.375C54.6563 399.517 55.0142 399.75 55.3324 400.074C55.6506 400.395 55.9034 400.825 56.0909 401.365C56.2784 401.905 56.3722 402.572 56.3722 403.368C56.375 404.118 56.2955 404.788 56.1335 405.379C55.9744 405.967 55.7457 406.464 55.4474 406.871C55.1491 407.277 54.7898 407.587 54.3693 407.8C53.9489 408.013 53.4759 408.119 52.9503 408.119C52.3991 408.119 51.9105 408.011 51.4844 407.795C51.0611 407.58 50.7188 407.284 50.4574 406.909C50.196 406.534 50.0355 406.105 49.9759 405.622H51.5312C51.6108 405.969 51.7727 406.244 52.017 406.449C52.2642 406.651 52.5753 406.751 52.9503 406.751C53.5554 406.751 54.0213 406.489 54.348 405.963C54.6747 405.437 54.8381 404.707 54.8381 403.773H54.7784C54.6392 404.023 54.4588 404.239 54.2372 404.42C54.0156 404.599 53.7642 404.737 53.483 404.834C53.2045 404.93 52.9091 404.979 52.5966 404.979C52.0852 404.979 51.625 404.857 51.2159 404.612C50.8097 404.368 50.4872 404.033 50.2486 403.607C50.0128 403.18 49.8935 402.693 49.8906 402.145C49.8906 401.577 50.0213 401.067 50.2827 400.615C50.5469 400.161 50.9148 399.803 51.3864 399.541C51.858 399.277 52.4091 399.148 53.0398 399.153ZM53.044 400.432C52.7372 400.432 52.4602 400.507 52.2131 400.658C51.9688 400.805 51.7756 401.007 51.6335 401.263C51.4943 401.516 51.4247 401.798 51.4247 402.111C51.4276 402.42 51.4972 402.702 51.6335 402.955C51.7727 403.207 51.9616 403.408 52.2003 403.555C52.4418 403.703 52.7173 403.777 53.027 403.777C53.2571 403.777 53.4716 403.733 53.6705 403.645C53.8693 403.557 54.0426 403.435 54.1903 403.278C54.3409 403.119 54.4574 402.939 54.5398 402.737C54.625 402.536 54.6662 402.322 54.6634 402.098C54.6634 401.8 54.5923 401.524 54.4503 401.271C54.3111 401.018 54.1193 400.815 53.875 400.662C53.6335 400.509 53.3565 400.432 53.044 400.432ZM61.017 408.166C60.3153 408.166 59.7131 407.989 59.2102 407.634C58.7102 407.276 58.3253 406.76 58.0554 406.087C57.7884 405.411 57.6548 404.597 57.6548 403.645C57.6577 402.693 57.7926 401.884 58.0597 401.216C58.3295 400.545 58.7145 400.034 59.2145 399.682C59.7173 399.33 60.3182 399.153 61.017 399.153C61.7159 399.153 62.3168 399.33 62.8196 399.682C63.3224 400.034 63.7074 400.545 63.9744 401.216C64.2443 401.886 64.3793 402.696 64.3793 403.645C64.3793 404.599 64.2443 405.415 63.9744 406.091C63.7074 406.764 63.3224 407.278 62.8196 407.634C62.3196 407.989 61.7188 408.166 61.017 408.166ZM61.017 406.832C61.5625 406.832 61.9929 406.564 62.3082 406.027C62.6264 405.487 62.7855 404.693 62.7855 403.645C62.7855 402.952 62.7131 402.369 62.5682 401.898C62.4233 401.426 62.2188 401.071 61.9545 400.832C61.6903 400.591 61.3778 400.47 61.017 400.47C60.4744 400.47 60.0455 400.74 59.7301 401.28C59.4148 401.817 59.2557 402.605 59.2528 403.645C59.25 404.341 59.3196 404.926 59.4616 405.401C59.6065 405.875 59.8111 406.233 60.0753 406.474C60.3395 406.713 60.6534 406.832 61.017 406.832ZM65.7951 408V406.858L68.8249 403.888C69.1147 403.595 69.3562 403.335 69.5494 403.108C69.7425 402.881 69.8874 402.661 69.984 402.447C70.0806 402.234 70.1289 402.007 70.1289 401.766C70.1289 401.49 70.0664 401.254 69.9414 401.058C69.8164 400.859 69.6445 400.706 69.4258 400.598C69.207 400.49 68.9585 400.436 68.68 400.436C68.3931 400.436 68.1417 400.496 67.9258 400.615C67.7099 400.732 67.5423 400.898 67.4229 401.114C67.3065 401.33 67.2482 401.587 67.2482 401.885H65.744C65.744 401.331 65.8704 400.849 66.1232 400.44C66.3761 400.031 66.7241 399.714 67.1673 399.49C67.6133 399.266 68.1246 399.153 68.7013 399.153C69.2866 399.153 69.8008 399.263 70.244 399.482C70.6871 399.7 71.0309 400 71.2752 400.381C71.5224 400.761 71.646 401.196 71.646 401.685C71.646 402.011 71.5835 402.332 71.4585 402.648C71.3335 402.963 71.1133 403.312 70.7979 403.696C70.4854 404.08 70.0465 404.544 69.4812 405.089L67.9769 406.619V406.679H71.7781V408H65.7951ZM79.3271 408.119C78.6935 408.119 78.131 408.013 77.6396 407.8C77.1509 407.587 76.7674 407.295 76.489 406.926C76.2134 406.554 76.0771 406.132 76.0799 405.661C76.0771 405.294 76.1566 404.957 76.3185 404.651C76.4805 404.344 76.6992 404.088 76.9748 403.884C77.2532 403.676 77.5629 403.544 77.9038 403.487V403.428C77.4549 403.328 77.0913 403.099 76.8129 402.741C76.5373 402.381 76.4009 401.964 76.4038 401.493C76.4009 401.044 76.5259 400.643 76.7788 400.291C77.0316 399.939 77.3782 399.662 77.8185 399.46C78.2589 399.256 78.7617 399.153 79.3271 399.153C79.8867 399.153 80.3853 399.256 80.8228 399.46C81.2631 399.662 81.6097 399.939 81.8626 400.291C82.1183 400.643 82.2461 401.044 82.2461 401.493C82.2461 401.964 82.1055 402.381 81.8242 402.741C81.5458 403.099 81.1864 403.328 80.7461 403.428V403.487C81.087 403.544 81.3938 403.676 81.6665 403.884C81.9421 404.088 82.1609 404.344 82.3228 404.651C82.4876 404.957 82.57 405.294 82.57 405.661C82.57 406.132 82.4308 406.554 82.1523 406.926C81.8739 407.295 81.4904 407.587 81.0018 407.8C80.516 408.013 79.9577 408.119 79.3271 408.119ZM79.3271 406.901C79.6538 406.901 79.9379 406.845 80.1793 406.734C80.4208 406.621 80.6083 406.462 80.7418 406.257C80.8754 406.053 80.9435 405.817 80.9464 405.55C80.9435 405.271 80.8711 405.026 80.729 404.812C80.5898 404.597 80.3981 404.428 80.1538 404.305C79.9123 404.183 79.6367 404.122 79.3271 404.122C79.0146 404.122 78.7362 404.183 78.4918 404.305C78.2475 404.428 78.0543 404.597 77.9123 404.812C77.7731 405.026 77.7049 405.271 77.7077 405.55C77.7049 405.817 77.7702 406.053 77.9038 406.257C78.0373 406.459 78.2248 406.616 78.4663 406.73C78.7106 406.844 78.9975 406.901 79.3271 406.901ZM79.3271 402.925C79.5941 402.925 79.8299 402.871 80.0344 402.763C80.2418 402.655 80.4052 402.504 80.5245 402.311C80.6438 402.118 80.7049 401.895 80.7077 401.642C80.7049 401.392 80.6452 401.173 80.5288 400.986C80.4123 400.795 80.2504 400.649 80.043 400.547C79.8356 400.442 79.5969 400.389 79.3271 400.389C79.0515 400.389 78.8086 400.442 78.5984 400.547C78.391 400.649 78.229 400.795 78.1126 400.986C77.9989 401.173 77.9435 401.392 77.9464 401.642C77.9435 401.895 78.0004 402.118 78.1168 402.311C78.2362 402.501 78.3995 402.652 78.6069 402.763C78.8171 402.871 79.0572 402.925 79.3271 402.925ZM87.0732 408.119C86.4396 408.119 85.8771 408.013 85.3857 407.8C84.897 407.587 84.5135 407.295 84.2351 406.926C83.9595 406.554 83.8232 406.132 83.826 405.661C83.8232 405.294 83.9027 404.957 84.0646 404.651C84.2266 404.344 84.4453 404.088 84.7209 403.884C84.9993 403.676 85.3089 403.544 85.6499 403.487V403.428C85.201 403.328 84.8374 403.099 84.5589 402.741C84.2834 402.381 84.147 401.964 84.1499 401.493C84.147 401.044 84.272 400.643 84.5249 400.291C84.7777 399.939 85.1243 399.662 85.5646 399.46C86.005 399.256 86.5078 399.153 87.0732 399.153C87.6328 399.153 88.1314 399.256 88.5689 399.46C89.0092 399.662 89.3558 399.939 89.6087 400.291C89.8643 400.643 89.9922 401.044 89.9922 401.493C89.9922 401.964 89.8516 402.381 89.5703 402.741C89.2919 403.099 88.9325 403.328 88.4922 403.428V403.487C88.8331 403.544 89.1399 403.676 89.4126 403.884C89.6882 404.088 89.907 404.344 90.0689 404.651C90.2337 404.957 90.3161 405.294 90.3161 405.661C90.3161 406.132 90.1768 406.554 89.8984 406.926C89.62 407.295 89.2365 407.587 88.7479 407.8C88.2621 408.013 87.7038 408.119 87.0732 408.119ZM87.0732 406.901C87.3999 406.901 87.6839 406.845 87.9254 406.734C88.1669 406.621 88.3544 406.462 88.4879 406.257C88.6214 406.053 88.6896 405.817 88.6925 405.55C88.6896 405.271 88.6172 405.026 88.4751 404.812C88.3359 404.597 88.1442 404.428 87.8999 404.305C87.6584 404.183 87.3828 404.122 87.0732 404.122C86.7607 404.122 86.4822 404.183 86.2379 404.305C85.9936 404.428 85.8004 404.597 85.6584 404.812C85.5192 405.026 85.451 405.271 85.4538 405.55C85.451 405.817 85.5163 406.053 85.6499 406.257C85.7834 406.459 85.9709 406.616 86.2124 406.73C86.4567 406.844 86.7436 406.901 87.0732 406.901ZM87.0732 402.925C87.3402 402.925 87.576 402.871 87.7805 402.763C87.9879 402.655 88.1513 402.504 88.2706 402.311C88.3899 402.118 88.451 401.895 88.4538 401.642C88.451 401.392 88.3913 401.173 88.2749 400.986C88.1584 400.795 87.9964 400.649 87.7891 400.547C87.5817 400.442 87.343 400.389 87.0732 400.389C86.7976 400.389 86.5547 400.442 86.3445 400.547C86.1371 400.649 85.9751 400.795 85.8587 400.986C85.745 401.173 85.6896 401.392 85.6925 401.642C85.6896 401.895 85.7464 402.118 85.8629 402.311C85.9822 402.501 86.1456 402.652 86.353 402.763C86.5632 402.871 86.8033 402.925 87.0732 402.925ZM94.7511 408.119C94.1829 408.119 93.6744 408.013 93.2255 407.8C92.7766 407.584 92.4201 407.288 92.1559 406.913C91.8945 406.538 91.7553 406.109 91.7383 405.626H93.2724C93.3008 405.984 93.4556 406.277 93.7369 406.504C94.0181 406.729 94.3562 406.841 94.7511 406.841C95.0607 406.841 95.3363 406.77 95.5778 406.628C95.8192 406.486 96.0096 406.288 96.1488 406.036C96.288 405.783 96.3562 405.494 96.3533 405.17C96.3562 404.841 96.2866 404.548 96.1445 404.293C96.0025 404.037 95.8079 403.837 95.5607 403.692C95.3136 403.544 95.0295 403.47 94.7085 403.47C94.4471 403.467 94.19 403.516 93.9371 403.615C93.6843 403.714 93.484 403.845 93.3363 404.007L91.9087 403.773L92.3647 399.273H97.4272V400.594H93.6729L93.4215 402.908H93.4727C93.6346 402.717 93.8633 402.56 94.1587 402.435C94.4542 402.307 94.7781 402.243 95.1303 402.243C95.6587 402.243 96.1303 402.368 96.5451 402.618C96.9599 402.865 97.2866 403.206 97.5252 403.641C97.7638 404.075 97.8832 404.572 97.8832 405.132C97.8832 405.709 97.7496 406.223 97.4826 406.675C97.2184 407.124 96.8505 407.477 96.3789 407.736C95.9102 407.991 95.3675 408.119 94.7511 408.119ZM102.287 408V406.858L105.317 403.888C105.607 403.595 105.848 403.335 106.042 403.108C106.235 402.881 106.38 402.661 106.476 402.447C106.573 402.234 106.621 402.007 106.621 401.766C106.621 401.49 106.559 401.254 106.434 401.058C106.309 400.859 106.137 400.706 105.918 400.598C105.699 400.49 105.451 400.436 105.172 400.436C104.885 400.436 104.634 400.496 104.418 400.615C104.202 400.732 104.034 400.898 103.915 401.114C103.799 401.33 103.74 401.587 103.74 401.885H102.236C102.236 401.331 102.363 400.849 102.615 400.44C102.868 400.031 103.216 399.714 103.659 399.49C104.105 399.266 104.617 399.153 105.194 399.153C105.779 399.153 106.293 399.263 106.736 399.482C107.179 399.7 107.523 400 107.767 400.381C108.015 400.761 108.138 401.196 108.138 401.685C108.138 402.011 108.076 402.332 107.951 402.648C107.826 402.963 107.605 403.312 107.29 403.696C106.978 404.08 106.539 404.544 105.973 405.089L104.469 406.619V406.679H108.27V408H102.287ZM112.775 408.119C112.206 408.119 111.698 408.013 111.249 407.8C110.8 407.584 110.444 407.288 110.179 406.913C109.918 406.538 109.779 406.109 109.762 405.626H111.296C111.324 405.984 111.479 406.277 111.76 406.504C112.042 406.729 112.38 406.841 112.775 406.841C113.084 406.841 113.36 406.77 113.601 406.628C113.843 406.486 114.033 406.288 114.172 406.036C114.311 405.783 114.38 405.494 114.377 405.17C114.38 404.841 114.31 404.548 114.168 404.293C114.026 404.037 113.831 403.837 113.584 403.692C113.337 403.544 113.053 403.47 112.732 403.47C112.471 403.467 112.213 403.516 111.961 403.615C111.708 403.714 111.507 403.845 111.36 404.007L109.932 403.773L110.388 399.273H115.451V400.594H111.696L111.445 402.908H111.496C111.658 402.717 111.887 402.56 112.182 402.435C112.478 402.307 112.801 402.243 113.154 402.243C113.682 402.243 114.154 402.368 114.569 402.618C114.983 402.865 115.31 403.206 115.549 403.641C115.787 404.075 115.907 404.572 115.907 405.132C115.907 405.709 115.773 406.223 115.506 406.675C115.242 407.124 114.874 407.477 114.402 407.736C113.934 407.991 113.391 408.119 112.775 408.119ZM120.153 406.381V405.124L123.856 399.273H124.904V401.062H124.265L121.772 405.013V405.081H126.941V406.381H120.153ZM124.316 408V405.997L124.333 405.435V399.273H125.825V408H124.316ZM131.529 408.166C130.827 408.166 130.225 407.989 129.722 407.634C129.222 407.276 128.837 406.76 128.567 406.087C128.3 405.411 128.167 404.597 128.167 403.645C128.169 402.693 128.304 401.884 128.571 401.216C128.841 400.545 129.226 400.034 129.726 399.682C130.229 399.33 130.83 399.153 131.529 399.153C132.228 399.153 132.828 399.33 133.331 399.682C133.834 400.034 134.219 400.545 134.486 401.216C134.756 401.886 134.891 402.696 134.891 403.645C134.891 404.599 134.756 405.415 134.486 406.091C134.219 406.764 133.834 407.278 133.331 407.634C132.831 407.989 132.23 408.166 131.529 408.166ZM131.529 406.832C132.074 406.832 132.505 406.564 132.82 406.027C133.138 405.487 133.297 404.693 133.297 403.645C133.297 402.952 133.225 402.369 133.08 401.898C132.935 401.426 132.73 401.071 132.466 400.832C132.202 400.591 131.89 400.47 131.529 400.47C130.986 400.47 130.557 400.74 130.242 401.28C129.926 401.817 129.767 402.605 129.765 403.645C129.762 404.341 129.831 404.926 129.973 405.401C130.118 405.875 130.323 406.233 130.587 406.474C130.851 406.713 131.165 406.832 131.529 406.832Z" fill="#4ECCA3"/>
</svg>
