<svg width="47" height="68" viewBox="0 0 47 68" fill="none" xmlns="http://www.w3.org/2000/svg">
<path d="M25.2595 52.0218L35.8905 46.6315L41.2059 43.9364L42.5239 42.7588C42.5239 42.7588 43.1933 43.0097 43.643 43.0352C44.4371 43.0802 44.9293 42.9027 45.6013 42.4824C46.1235 42.1557 46.7204 41.3767 46.7204 41.3767L46.5214 56.4444L25.1787 67.3604V56.7463L27.9763 57.962L28.8156 56.8563C28.8156 56.8563 28.1571 56.3173 27.6966 56.027C26.7894 55.4554 25.1787 54.9214 25.1787 54.9214L25.2595 52.0218Z" fill="#4ECCA3"/>
<path d="M3.1582 40.6884L25.2594 52.0218L25.1786 54.9214C25.1786 54.9214 24.0273 54.2956 22.6607 54.0921C21.4724 53.9152 20.7441 53.7845 19.5834 54.0921C18.4969 54.3801 17.9616 54.8025 17.0655 55.4742C16.2038 56.1199 15.1072 57.4091 15.1072 57.4091L16.506 58.5148C16.506 58.5148 17.283 57.434 17.9048 56.8563C18.5896 56.2205 18.9753 55.7788 19.8631 55.4742C20.8952 55.1202 21.5948 55.2376 22.6607 55.4742C23.9964 55.7711 25.7381 57.1327 25.7381 57.1327L25.2594 59.7615V67.5013L14.2088 62.0608L3.35716 56.8563L6.71431 53.2628L6.50896 54.2351L9.51193 56.3034V59.0677L11.024 59.7615L10.9107 57.1327L14.2088 58.6685L13.9881 57.4091L10.9107 55.7506V52.4336L9.61835 52.0218L9.51193 54.645L6.71431 53.2628L3.35716 56.8563V48.2872C3.35716 48.2872 4.1363 49.2436 4.47621 49.9458C4.77434 50.5617 5.03574 51.6043 5.03574 51.6043L6.15478 52.0218C6.15478 52.0218 5.83423 50.1793 5.3155 49.1165C5.03877 48.5496 4.87357 48.2264 4.47621 47.7344C4.09062 47.257 3.33773 46.6477 3.33773 46.6477L3.27789 44.6613L3.1582 40.6884Z" fill="#4ECCA3"/>
<path d="M24.9796 29.8071L33.5715 34.1897C33.5715 34.1897 35.0972 35.7148 36.0893 36.6775C37.9169 38.4508 39.0056 39.3794 40.8453 41.1404C41.503 41.7701 42.112 42.5785 42.5238 42.7588C42.9356 42.9392 43.6429 43.0352 43.6429 43.0352L25.2594 52.0218L3.1582 40.6884L24.9796 29.8071Z" fill="#4ECCA3"/>
<path d="M32.2533 8.07055C33.1032 7.53622 34.7712 8.62339 34.7712 8.62339L44.2831 18.0218C44.2831 18.0218 44.9005 18.5575 45.1224 19.1275C45.3185 19.6312 45.4022 20.5096 45.4022 20.5096V40.6884C45.4022 40.6884 44.6945 41.687 44.0033 41.7941C43.1332 41.929 42.045 40.6884 42.045 40.6884L32.2533 31.5665C32.2533 31.5665 31.8665 30.9728 31.6938 30.4608C31.5211 29.9487 31.4141 29.0787 31.4141 29.0787V9.72908C31.4141 9.72908 31.635 8.45936 32.2533 8.07055Z" fill="#4ECCA3"/>
<path d="M0.843065 5.7637C1.38885 4.92721 3.36418 5.22553 3.36418 5.22553L15.9822 9.83247C15.9822 9.83247 16.9832 10.1323 17.4259 10.5584C17.8172 10.935 18.0516 11.6299 18.0516 11.6299L25.738 27.0028C25.738 27.0028 26.1243 28.0275 25.7909 28.5209C25.4044 29.0927 24.0594 28.9377 24.0594 28.9377L10.7873 27.1066C10.7873 27.1066 9.96622 26.7083 9.59257 26.3145C9.21898 25.9207 9.2004 25.6838 8.97201 25.1935C5.77382 18.3295 0.782631 7.61706 0.782631 7.61706C0.782631 7.61706 0.445951 6.37232 0.843065 5.7637Z" fill="#4ECCA3"/>
</svg>
